<svg xmlns="http://www.w3.org/2000/svg" xmlns:xlink="http://www.w3.org/1999/xlink" width="480" zoomAndPan="magnify" viewBox="0 0 360 503.999982" height="672" preserveAspectRatio="xMidYMid meet" version="1.0"><defs><clipPath id="e3995347db"><path d="M 257 250 L 265 250 L 265 262 L 257 262 Z M 257 250 " clip-rule="nonzero"/></clipPath><clipPath id="f62a486d04"><path d="M -20.257812 186.835938 L 216.996094 23.574219 L 380.257812 260.828125 L 143.003906 424.089844 Z M -20.257812 186.835938 " clip-rule="nonzero"/></clipPath><clipPath id="effc5bc262"><path d="M 216.996094 23.574219 L -20.257812 186.835938 L 143.003906 424.089844 L 380.257812 260.828125 Z M 216.996094 23.574219 " clip-rule="nonzero"/></clipPath><clipPath id="df68d8ec83"><path d="M 236 248 L 268 248 L 268 273 L 236 273 Z M 236 248 " clip-rule="nonzero"/></clipPath><clipPath id="097dcd1329"><path d="M -20.257812 186.835938 L 216.996094 23.574219 L 380.257812 260.828125 L 143.003906 424.089844 Z M -20.257812 186.835938 " clip-rule="nonzero"/></clipPath><clipPath id="8a189a5523"><path d="M 216.996094 23.574219 L -20.257812 186.835938 L 143.003906 424.089844 L 380.257812 260.828125 Z M 216.996094 23.574219 " clip-rule="nonzero"/></clipPath><clipPath id="6b68e71e66"><path d="M 263 246 L 285 246 L 285 296 L 263 296 Z M 263 246 " clip-rule="nonzero"/></clipPath><clipPath id="a43ce8f104"><path d="M -20.257812 186.835938 L 216.996094 23.574219 L 380.257812 260.828125 L 143.003906 424.089844 Z M -20.257812 186.835938 " clip-rule="nonzero"/></clipPath><clipPath id="21f2e4e44d"><path d="M 216.996094 23.574219 L -20.257812 186.835938 L 143.003906 424.089844 L 380.257812 260.828125 Z M 216.996094 23.574219 " clip-rule="nonzero"/></clipPath><clipPath id="1f3a05708e"><path d="M 281 203 L 307 203 L 307 237 L 281 237 Z M 281 203 " clip-rule="nonzero"/></clipPath><clipPath id="a0ae0b6138"><path d="M -20.257812 186.835938 L 216.996094 23.574219 L 380.257812 260.828125 L 143.003906 424.089844 Z M -20.257812 186.835938 " clip-rule="nonzero"/></clipPath><clipPath id="5fafc9c2c7"><path d="M 216.996094 23.574219 L -20.257812 186.835938 L 143.003906 424.089844 L 380.257812 260.828125 Z M 216.996094 23.574219 " clip-rule="nonzero"/></clipPath><clipPath id="2fdabe32cc"><path d="M 158 210 L 182 210 L 182 234 L 158 234 Z M 158 210 " clip-rule="nonzero"/></clipPath><clipPath id="346db72770"><path d="M -20.257812 186.835938 L 216.996094 23.574219 L 380.257812 260.828125 L 143.003906 424.089844 Z M -20.257812 186.835938 " clip-rule="nonzero"/></clipPath><clipPath id="d5c943911b"><path d="M 216.996094 23.574219 L -20.257812 186.835938 L 143.003906 424.089844 L 380.257812 260.828125 Z M 216.996094 23.574219 " clip-rule="nonzero"/></clipPath><clipPath id="aa295ef231"><path d="M 165 163 L 174 163 L 174 281 L 165 281 Z M 165 163 " clip-rule="nonzero"/></clipPath><clipPath id="0699fa565f"><path d="M -20.257812 186.835938 L 216.996094 23.574219 L 380.257812 260.828125 L 143.003906 424.089844 Z M -20.257812 186.835938 " clip-rule="nonzero"/></clipPath><clipPath id="b1432ef642"><path d="M 216.996094 23.574219 L -20.257812 186.835938 L 143.003906 424.089844 L 380.257812 260.828125 Z M 216.996094 23.574219 " clip-rule="nonzero"/></clipPath><clipPath id="0590ec4970"><path d="M 173 166 L 252 166 L 252 278 L 173 278 Z M 173 166 " clip-rule="nonzero"/></clipPath><clipPath id="fa723311fc"><path d="M -20.257812 186.835938 L 216.996094 23.574219 L 380.257812 260.828125 L 143.003906 424.089844 Z M -20.257812 186.835938 " clip-rule="nonzero"/></clipPath><clipPath id="21d0549d94"><path d="M 216.996094 23.574219 L -20.257812 186.835938 L 143.003906 424.089844 L 380.257812 260.828125 Z M 216.996094 23.574219 " clip-rule="nonzero"/></clipPath><clipPath id="6406f79ec6"><path d="M 251 191 L 294 191 L 294 251 L 251 251 Z M 251 191 " clip-rule="nonzero"/></clipPath><clipPath id="36645932dd"><path d="M -20.257812 186.835938 L 216.996094 23.574219 L 380.257812 260.828125 L 143.003906 424.089844 Z M -20.257812 186.835938 " clip-rule="nonzero"/></clipPath><clipPath id="519a347689"><path d="M 216.996094 23.574219 L -20.257812 186.835938 L 143.003906 424.089844 L 380.257812 260.828125 Z M 216.996094 23.574219 " clip-rule="nonzero"/></clipPath><clipPath id="b44656c573"><path d="M 101 133 L 150 133 L 150 172 L 101 172 Z M 101 133 " clip-rule="nonzero"/></clipPath><clipPath id="0e62f49e6d"><path d="M -20.257812 186.835938 L 216.996094 23.574219 L 380.257812 260.828125 L 143.003906 424.089844 Z M -20.257812 186.835938 " clip-rule="nonzero"/></clipPath><clipPath id="38f8bac412"><path d="M 216.996094 23.574219 L -20.257812 186.835938 L 143.003906 424.089844 L 380.257812 260.828125 Z M 216.996094 23.574219 " clip-rule="nonzero"/></clipPath><clipPath id="d2d4c5fbf1"><path d="M 70 181 L 134 181 L 134 200 L 70 200 Z M 70 181 " clip-rule="nonzero"/></clipPath><clipPath id="40eac825f3"><path d="M -20.257812 186.835938 L 216.996094 23.574219 L 380.257812 260.828125 L 143.003906 424.089844 Z M -20.257812 186.835938 " clip-rule="nonzero"/></clipPath><clipPath id="1239129182"><path d="M 216.996094 23.574219 L -20.257812 186.835938 L 143.003906 424.089844 L 380.257812 260.828125 Z M 216.996094 23.574219 " clip-rule="nonzero"/></clipPath><clipPath id="ceb41b7d51"><path d="M 102 275 L 151 275 L 151 314 L 102 314 Z M 102 275 " clip-rule="nonzero"/></clipPath><clipPath id="8336544204"><path d="M -20.257812 186.835938 L 216.996094 23.574219 L 380.257812 260.828125 L 143.003906 424.089844 Z M -20.257812 186.835938 " clip-rule="nonzero"/></clipPath><clipPath id="1974425a0a"><path d="M 216.996094 23.574219 L -20.257812 186.835938 L 143.003906 424.089844 L 380.257812 260.828125 Z M 216.996094 23.574219 " clip-rule="nonzero"/></clipPath><clipPath id="6c941d7f02"><path d="M 70 247 L 135 247 L 135 268 L 70 268 Z M 70 247 " clip-rule="nonzero"/></clipPath><clipPath id="762d891a1f"><path d="M -20.257812 186.835938 L 216.996094 23.574219 L 380.257812 260.828125 L 143.003906 424.089844 Z M -20.257812 186.835938 " clip-rule="nonzero"/></clipPath><clipPath id="a0a36bc7c9"><path d="M 216.996094 23.574219 L -20.257812 186.835938 L 143.003906 424.089844 L 380.257812 260.828125 Z M 216.996094 23.574219 " clip-rule="nonzero"/></clipPath><clipPath id="8ce029d792"><path d="M 62 222 L 129 222 L 129 227 L 62 227 Z M 62 222 " clip-rule="nonzero"/></clipPath><clipPath id="02099b3f14"><path d="M -20.257812 186.835938 L 216.996094 23.574219 L 380.257812 260.828125 L 143.003906 424.089844 Z M -20.257812 186.835938 " clip-rule="nonzero"/></clipPath><clipPath id="b2e837e454"><path d="M 216.996094 23.574219 L -20.257812 186.835938 L 143.003906 424.089844 L 380.257812 260.828125 Z M 216.996094 23.574219 " clip-rule="nonzero"/></clipPath></defs><g clip-path="url(#e3995347db)"><g clip-path="url(#f62a486d04)"><g clip-path="url(#effc5bc262)"><path fill="#9db2bf" d="M 257.644531 261.378906 C 257.644531 261.585938 257.8125 261.742188 258.011719 261.746094 L 263.964844 261.699219 C 264.160156 261.695312 264.328125 261.53125 264.320312 261.332031 L 264.261719 253.316406 C 264.261719 253.121094 264.097656 252.957031 263.898438 252.964844 L 263.703125 250.492188 C 263.496094 250.496094 261.726562 250.308594 261.730469 250.507812 L 257.644531 261.378906 " fill-opacity="1" fill-rule="nonzero"/></g></g></g><g clip-path="url(#df68d8ec83)"><g clip-path="url(#097dcd1329)"><g clip-path="url(#8a189a5523)"><path fill="#ffffff" d="M 264.640625 272.039062 C 266.429688 272.023438 267.882812 270.558594 267.863281 268.761719 C 267.847656 266.972656 266.386719 265.527344 264.589844 265.535156 C 248.414062 265.660156 243.234375 251.011719 243.183594 250.867188 C 242.605469 249.167969 240.761719 248.257812 239.066406 248.839844 C 237.367188 249.417969 236.457031 251.261719 237.035156 252.960938 C 239.300781 259.613281 247.984375 272.160156 264.640625 272.039062 " fill-opacity="1" fill-rule="nonzero"/></g></g></g><g clip-path="url(#6b68e71e66)"><g clip-path="url(#a43ce8f104)"><g clip-path="url(#21f2e4e44d)"><path fill="#ffffff" d="M 263.847656 294.28125 C 263.851562 295.109375 264.53125 295.777344 265.355469 295.769531 L 283.339844 295.628906 C 284.167969 295.625 284.832031 294.953125 284.820312 294.125 L 284.480469 247.984375 C 284.472656 247.160156 283.796875 246.492188 282.972656 246.5 L 264.984375 246.632812 C 264.160156 246.644531 263.496094 247.3125 263.5 248.140625 L 263.847656 294.28125 " fill-opacity="1" fill-rule="nonzero"/></g></g></g><g clip-path="url(#1f3a05708e)"><g clip-path="url(#a0ae0b6138)"><g clip-path="url(#5fafc9c2c7)"><path fill="#ffffff" d="M 281.261719 233.667969 C 281.277344 235.449219 282.730469 236.882812 284.511719 236.867188 L 303.15625 236.730469 C 304.9375 236.714844 306.371094 235.257812 306.351562 233.476562 L 306.152344 207.074219 C 306.144531 205.296875 304.6875 203.863281 302.910156 203.878906 L 284.261719 204.015625 C 282.480469 204.035156 281.050781 205.488281 281.0625 207.269531 L 281.261719 233.667969 " fill-opacity="1" fill-rule="nonzero"/></g></g></g><g clip-path="url(#2fdabe32cc)"><g clip-path="url(#346db72770)"><g clip-path="url(#d5c943911b)"><path fill="#ffffff" d="M 158.382812 222.121094 C 158.433594 228.453125 163.601562 233.554688 169.9375 233.5 C 176.269531 233.453125 181.371094 228.285156 181.324219 221.941406 C 181.269531 215.617188 176.097656 210.515625 169.769531 210.566406 C 163.433594 210.617188 158.335938 215.78125 158.382812 222.121094 " fill-opacity="1" fill-rule="nonzero"/></g></g></g><g clip-path="url(#aa295ef231)"><g clip-path="url(#0699fa565f)"><g clip-path="url(#b1432ef642)"><path fill="#27374d" d="M 169.414062 163.628906 C 171.464844 163.609375 173.140625 165.101562 173.160156 166.957031 L 173.984375 277.054688 C 174.003906 278.910156 172.351562 280.425781 170.292969 280.4375 C 168.234375 280.453125 166.558594 278.96875 166.546875 277.109375 L 165.722656 167.011719 C 165.703125 165.15625 167.355469 163.640625 169.414062 163.628906 " fill-opacity="1" fill-rule="nonzero"/></g></g></g><g clip-path="url(#0590ec4970)"><g clip-path="url(#fa723311fc)"><g clip-path="url(#21d0549d94)"><path fill="#ffffff" d="M 251.507812 195.410156 L 251.90625 247.429688 L 173.984375 277.054688 L 173.160156 166.957031 L 251.507812 195.410156 " fill-opacity="1" fill-rule="nonzero"/></g></g></g><g clip-path="url(#6406f79ec6)"><g clip-path="url(#36645932dd)"><g clip-path="url(#519a347689)"><path fill="#27374d" d="M 251.90625 247.535156 C 251.917969 249.320312 253.375 250.753906 255.164062 250.738281 L 290.703125 250.46875 C 292.488281 250.460938 293.921875 248.996094 293.910156 247.21875 L 293.515625 194.984375 C 293.503906 193.199219 292.042969 191.765625 290.257812 191.777344 L 254.71875 192.050781 C 252.933594 192.0625 251.496094 193.519531 251.507812 195.304688 L 251.90625 247.535156 " fill-opacity="1" fill-rule="nonzero"/></g></g></g><g clip-path="url(#b44656c573)"><g clip-path="url(#0e62f49e6d)"><g clip-path="url(#38f8bac412)"><path fill="#ffffff" d="M 147.613281 171.59375 C 148.222656 171.585938 148.824219 171.3125 149.21875 170.785156 C 149.902344 169.886719 149.730469 168.609375 148.832031 167.925781 L 104.472656 134.28125 C 103.582031 133.597656 102.300781 133.773438 101.617188 134.671875 C 100.9375 135.566406 101.117188 136.84375 102.011719 137.527344 L 146.367188 171.179688 C 146.738281 171.457031 147.179688 171.597656 147.613281 171.59375 " fill-opacity="1" fill-rule="nonzero"/></g></g></g><g clip-path="url(#d2d4c5fbf1)"><g clip-path="url(#40eac825f3)"><g clip-path="url(#1239129182)"><path fill="#ffffff" d="M 131.644531 199.226562 C 132.554688 199.214844 133.382812 198.585938 133.605469 197.652344 C 133.863281 196.5625 133.1875 195.457031 132.089844 195.203125 L 72.507812 181.085938 C 71.425781 180.828125 70.320312 181.5 70.058594 182.601562 C 69.800781 183.695312 70.472656 184.796875 71.570312 185.054688 L 131.152344 199.167969 C 131.316406 199.203125 131.476562 199.222656 131.644531 199.226562 " fill-opacity="1" fill-rule="nonzero"/></g></g></g><g clip-path="url(#ceb41b7d51)"><g clip-path="url(#8336544204)"><g clip-path="url(#1974425a0a)"><path fill="#ffffff" d="M 104.585938 313.71875 C 105.019531 313.714844 105.457031 313.574219 105.828125 313.285156 L 149.667969 278.972656 C 150.554688 278.28125 150.710938 277 150.015625 276.109375 C 149.320312 275.226562 148.035156 275.074219 147.15625 275.761719 L 103.3125 310.074219 C 102.425781 310.765625 102.265625 312.054688 102.964844 312.9375 C 103.371094 313.457031 103.976562 313.726562 104.585938 313.71875 " fill-opacity="1" fill-rule="nonzero"/></g></g></g><g clip-path="url(#6c941d7f02)"><g clip-path="url(#762d891a1f)"><g clip-path="url(#a0a36bc7c9)"><path fill="#ffffff" d="M 72.671875 267.027344 C 72.835938 267.027344 72.996094 267.007812 73.15625 266.964844 L 132.519531 251.957031 C 133.613281 251.675781 134.269531 250.574219 133.992188 249.480469 C 133.71875 248.386719 132.613281 247.722656 131.523438 248.003906 L 72.160156 263.011719 C 71.074219 263.292969 70.410156 264.398438 70.6875 265.492188 C 70.921875 266.421875 71.753906 267.035156 72.671875 267.027344 " fill-opacity="1" fill-rule="nonzero"/></g></g></g><g clip-path="url(#8ce029d792)"><g clip-path="url(#02099b3f14)"><g clip-path="url(#b2e837e454)"><path fill="#ffffff" d="M 64.683594 226.835938 L 125.972656 226.378906 C 127.101562 226.367188 128.007812 225.449219 128.003906 224.324219 C 127.992188 223.195312 127.074219 222.289062 125.945312 222.296875 L 64.65625 222.757812 C 63.523438 222.765625 62.625 223.6875 62.628906 224.8125 C 62.636719 225.941406 63.558594 226.84375 64.683594 226.835938 " fill-opacity="1" fill-rule="nonzero"/></g></g></g></svg>